<svg width="100" height="100" viewBox="0 0 100 100" fill="none" xmlns="http://www.w3.org/2000/svg">
<path d="M47.1076 61.4076C44.166 61.4076 43.1131 63.3326 43.1131 67.1097C43.1131 70.7052 44.0937 72.7756 46.8902 72.7756C49.6503 72.7756 50.9941 70.6329 50.9941 66.8194C50.9941 63.3687 49.6136 61.4076 47.1076 61.4076ZM38.1371 81.9997V62.2066C38.1371 60.6812 38.1371 59.1926 38.101 57.6673H43.1493C43.2219 58.1753 43.3309 59.3375 43.3309 60.0277C44.1298 58.6478 45.8007 57.2312 48.7785 57.2312C53.0281 57.2312 56.2604 60.7899 56.2604 66.6017C56.2604 73.2479 52.6284 76.9159 48.0882 76.9159C45.4375 76.9159 44.0569 75.8992 43.3309 74.809V81.9997H38.1371ZM31.047 57.6673H36.2772V76.4798H31.047V57.6673ZM31.047 54.616V49.967H36.2772V54.616H31.047ZM20.7604 76.4798V61.5889H18V57.6673H20.7604V56.0323C20.7604 52.1465 22.6857 49.6038 26.7531 49.6038C27.5882 49.6038 28.6781 49.6767 29.15 49.8222V53.9263C28.8597 53.8896 28.46 53.8534 28.0607 53.8534C26.5354 53.8534 25.9538 54.3982 25.9538 56.4322V57.6673H29.2229V61.5889H25.9538V76.4798H20.7604Z" fill="white"/>
<path d="M73.4982 37.243C68.8028 37.243 64.9965 33.6315 64.9965 29.1767C64.9965 28.63 65.0543 28.0962 65.1636 27.58H69.9659C69.7224 28.0639 69.586 28.6049 69.586 29.1767C69.586 31.2267 71.3376 32.8884 73.4982 32.8884C73.9795 32.8884 74.4407 32.8055 74.8668 32.6547V37.1384C74.4213 37.2068 73.9641 37.243 73.4982 37.243V37.243ZM81.8005 30.9185H76.9533C77.2448 30.3992 77.4104 29.8063 77.4104 29.1767C77.4104 27.1267 75.6588 25.4649 73.4982 25.4649C73.0939 25.4649 72.704 25.5231 72.337 25.6311V18H76.5464V21.6451C79.7357 22.8079 82 25.7411 82 29.1767C82 29.7749 81.9305 30.3574 81.8005 30.9185Z" fill="white"/>
</svg>
