<svg width="100" height="100" viewBox="0 0 100 100" fill="white" xmlns="http://www.w3.org/2000/svg">
<path d="M82 78.6233V74.975H79.7048V65.5804H74.2129L63.1233 72.654V78.6233H75.2018V81.8905H79.7054V78.6233H82V78.6233ZM75.2018 74.975H66.8551V74.9295L75.2018 69.5007V74.975ZM56.9166 81.7521H61.3198V65.442H54.3704L49.2563 75.9401L44.1402 65.442H37.1921V81.7521H41.5933V70.0379H41.634L47.5647 81.7521H50.9472L56.8765 70.0379H56.9166V81.7521ZM57.955 59.396V58.0849C57.955 55.7137 56.0531 55.4105 54.3955 55.4105H52.9521C51.2938 55.4105 49.3913 55.7137 49.3913 58.0849V59.396C49.3913 61.7679 51.2938 62.0711 52.9521 62.0711H54.3955C56.0531 62.0711 57.955 61.7679 57.955 59.396ZM56.4404 59.337C56.4404 60.3897 56.0016 60.7437 54.7 60.7437H52.6483C51.348 60.7437 50.9099 60.3897 50.9099 59.337V58.1433C50.9099 57.0913 51.348 56.7365 52.6483 56.7365H54.7C56.0016 56.7365 56.4404 57.0913 56.4404 58.1433V59.337ZM45.9281 61.9781H47.4426V55.5035H47.1896H45.9281V61.9781ZM45.9281 54.6061H47.4426V53H47.1896H45.9281V54.6061ZM42.2865 61.9781H43.7312V53.0007H43.4775H42.2159C42.2159 53.0007 42.2159 54.9595 42.2159 55.8378C41.8551 55.555 41.3288 55.4105 40.5345 55.4105H38.999C36.4745 55.4105 35.5798 56.1532 35.5798 58.2497V59.3031C35.5798 61.7563 37.3759 62.0717 38.9406 62.0717H40.346C41.1965 62.0717 41.849 61.8574 42.2865 61.481C42.2865 61.5732 42.2865 61.9781 42.2865 61.9781ZM42.2159 59.2773C42.2159 60.1584 41.9216 60.7437 40.4871 60.7437H38.845C37.3481 60.7437 37.0958 60.2961 37.0958 59.2895V58.1188C37.0958 57.0336 37.4871 56.7359 38.9169 56.7359H40.2768C41.7805 56.7359 42.2159 57.0513 42.2159 58.1426V59.2773V59.2773ZM23.0123 69.5001H35.0705V65.5804H18V81.8905H23.0123V76.3261H34.5055V72.5414H23.0123V69.5001ZM32.3961 61.9781H33.9113V57.722C33.9113 55.5889 32.1594 55.4105 30.5166 55.4105H28.922C27.5608 55.4105 26.1696 55.6228 26.1696 57.1978V57.4657H27.67L27.6856 57.2791C27.6856 57.0384 27.6856 56.7372 28.9444 56.7372H30.421C32.0454 56.7372 32.3961 56.9081 32.3961 57.701C32.3961 57.701 32.3961 57.9615 32.3961 58.2212C31.9756 57.9276 31.3977 57.8557 30.4929 57.8557H28.8746C27.1891 57.8557 25.9004 57.9866 25.9004 59.6307V60.0275C25.9004 61.4416 26.5712 62.0724 28.0769 62.0724H30.4929C31.5225 62.0724 32.0468 61.989 32.3961 61.757C32.3961 61.8052 32.3961 61.9781 32.3961 61.9781ZM32.3961 60.1197C32.3961 60.5606 32.0787 60.7437 30.1171 60.7437H28.7796C27.4163 60.7437 27.4163 60.4826 27.4163 60.0512V59.8633C27.4163 59.3906 27.4733 59.181 28.8271 59.181H30.3755C32.0909 59.181 32.3961 59.356 32.3961 59.8525V60.1197V60.1197ZM23.4322 58.7028H24.8782V57.7343C24.8782 56.0834 24.0779 55.4105 22.1157 55.4105H21.1661C20.4519 55.4105 19.9568 55.6622 19.5668 56.0291C19.5668 55.9111 19.5668 55.5035 19.5668 55.5035H18.1207V61.9781H19.6387V57.933C19.6387 57.3538 19.9873 56.7365 20.9674 56.7365H21.5887C23.3189 56.7365 23.4322 56.9197 23.4322 58.1907V58.7028Z"/>
</svg>
