<svg width="100" height="100" viewBox="0 0 100 100" fill="none" xmlns="http://www.w3.org/2000/svg">
<path fill-rule="evenodd" clip-rule="evenodd" d="M78.5106 31.4315C79.5044 32.4253 80.2205 33.6621 80.5876 35.0188C82.7015 43.5275 82.213 56.9658 80.6286 65.803C80.2615 67.1596 79.5454 68.3964 78.5516 69.3902C77.5578 70.384 76.321 71.1001 74.9644 71.4672C69.9979 72.8217 50.0087 72.8217 50.0087 72.8217C50.0087 72.8217 30.0195 72.8217 25.053 71.4672C23.6963 71.1001 22.4595 70.384 21.4657 69.3902C20.4719 68.3964 19.7558 67.1596 19.3887 65.803C17.2625 57.3312 17.8454 43.8846 19.3476 35.0598C19.7147 33.7032 20.4308 32.4664 21.4246 31.4726C22.4185 30.4788 23.6553 29.7627 25.0119 29.3955C29.9784 28.041 49.9676 28 49.9676 28C49.9676 28 69.9568 28 74.9233 29.3545C76.28 29.7216 77.5168 30.4377 78.5106 31.4315ZM60.188 50.4109L43.6056 60.0155V40.8062L60.188 50.4109Z" fill="white"/>
</svg>
