<svg width="100" height="100" viewBox="0 0 100 100" fill="white" xmlns="http://www.w3.org/2000/svg">
<path d="M80.2445 36.5679L81.5689 29.615C82.8932 24.6487 81.2378 22 75.6093 22C70.643 22 67.3321 24.6487 66.0077 29.9461L64.6834 36.5679C64.3523 39.5476 64.6834 41.2031 65.3456 43.5207L69.6497 56.102C70.3119 57.7575 70.3119 59.744 69.9808 61.3995L68.3254 69.0145C67.6632 71.3321 66.3388 72.9875 64.3523 72.9875C62.0347 72.9875 61.3725 71.6632 62.0347 69.0145L63.6901 62.0616H58.7238L57.0684 69.3456C55.744 74.9741 58.0616 77.2917 63.359 77.2917C67.9943 77.2917 71.6362 74.3119 72.9606 69.3456L74.9471 60.7373C75.6093 58.4197 75.2782 56.102 74.616 54.1155L69.9808 40.5409C69.6497 38.8855 69.6497 37.23 69.9808 35.5746L71.3051 29.9461C71.6362 27.9596 72.6295 26.3041 74.9471 26.3041C77.2647 26.3041 77.2647 27.9596 76.9336 29.9461L75.2782 36.5679H80.2445ZM54.7508 26.6352L43.4938 76.6295H48.4601L59.7171 26.6352H65.3456L66.3388 22.3311H50.4466L49.4533 26.6352H54.7508ZM33.23 28.6217L28.5948 76.6295H35.5477L47.7979 22.3311H43.4938L32.8989 68.6834L37.5342 22.6622H30.2502L18 76.6295H22.3041L33.23 28.6217Z"/>
</svg>
